<svg xmlns="http://www.w3.org/2000/svg" width="42" height="43" viewBox="0 0 42 43" fill="none">
<rect y="0.5" width="42" height="42" rx="12" fill="#FAFAFA"/>
<path d="M20.1534 11.7273H25.767V26.7386C25.767 28.4735 25.3542 29.9848 24.5284 31.2727C23.7027 32.553 22.5511 33.5455 21.0739 34.25C19.5966 34.947 17.8807 35.2955 15.9261 35.2955C13.9489 35.2955 12.2216 34.947 10.7443 34.25C9.26705 33.5455 8.11932 32.553 7.30114 31.2727C6.48295 29.9848 6.07386 28.4735 6.07386 26.7386V11.7273H11.6989V26.25C11.6989 27.053 11.8731 27.7689 12.2216 28.3977C12.5777 29.0265 13.0739 29.5189 13.7102 29.875C14.3466 30.2311 15.0852 30.4091 15.9261 30.4091C16.767 30.4091 17.5019 30.2311 18.1307 29.875C18.767 29.5189 19.2633 29.0265 19.6193 28.3977C19.9754 27.7689 20.1534 27.053 20.1534 26.25V11.7273ZM34.9176 11.7273V35H29.2926V11.7273H34.9176Z" fill="#083344"/>
</svg>